# xmcd CD database file
#
# Track frame offsets:
#	150
#	18769
#	33346
#	42510
#	56093
#	71722
#	94544
#	109143
#	127370
#	140245
#	155173
#	169676
#	180613
#	194588
#	210022
#	221845
#	243244
#	259742
#
# Disc length: 3658 seconds
#
# Revision: 4
# Processed by: cddbd v1.5.2PL0 Copyright (c) Steve Scherf et al.
# Submitted via: CDex 1.70beta3
#
DISCID=100e4812
DTITLE=10-FEET - 10-FEET BEST 2001-2009 DISC2
DYEAR=2010
DGENRE=Punk Rock
TTITLE0=1sec.
TTITLE1=goes on
TTITLE2=joker stomper
TTITLE3=4REST
TTITLE4=under the umber shine
TTITLE5=2%
TTITLE6=quiet
TTITLE7=U
TTITLE8=Mr. bullshit
TTITLE9=What's up?
TTITLE10=thanks
TTITLE11=BE NOTHING
TTITLE12=LOODY
TTITLE13=Trapped
TTITLE14=PLANLESS
TTITLE15=BUZZING
TTITLE16=Freedom
TTITLE17=CHERRY BLOSSOM
EXTD=YEAR: 2010
EXTT0=
EXTT1=
EXTT2=
EXTT3=
EXTT4=
EXTT5=
EXTT6=
EXTT7=
EXTT8=
EXTT9=
EXTT10=
EXTT11=
EXTT12=
EXTT13=
EXTT14=
EXTT15=
EXTT16=
EXTT17=
PLAYORDER=
